# xmcd
# Track frame offsets:
# 150
# 14114
# 30048
# 49234
# 66974
# 81420
#
# Disc length: 1274 seconds
# Revision: 0
# Processed by: cddbd v1.5.1PL0 Copyright (c) Steve Scherf et al.
# Submitted via: VisiTrax 2.9.10.228 - For more info visit www.synapsa.com
#
DISCID=4904f806
DTITLE=Mike Lewis - Unbrellas In The Sun
DYEAR=2003
DGENRE=Country
TTITLE0=Unbrellas In The Sun
TTITLE1=That's All
TTITLE2=Change Here Anyway
TTITLE3=All I See Is You
TTITLE4=Already Gone
TTITLE5=One Step Away
EXTD=
EXTT0=
EXTT1=
EXTT2=
EXTT3=
EXTT4=
EXTT5=
PLAYORDER=
